# xmcd
# 
# Track frame offsets:
#     183
#     13900
#     25210
#     38333
#     52083
#     63858
#     76308
#     102063
#     118328
#     130650
#     142098
#     153483
#     165708
#     178308
#     192093
#     204858
#     218728
#     231505
#     243833
#     267065
#     284713
#     295003
# 
# Disc length: 4110
# 
# Revision: 2
# Processed by: cddbd v1.5.2PL0 Copyright (c) Steve Scherf et al.
# Submitted via: fre:ac v1.0.31
# 
DISCID=3e100c16
DTITLE=Sonny Boy Williamson - The Story
DYEAR=0
DGENRE=Blues
TTITLE0=Crazy About You Baby
TTITLE1=Mr. Downchild
TTITLE2=Stop Crying
TTITLE3=Eyesight To The Blind
TTITLE4=Sonny Boy's Christmas Blues
TTITLE5=Cool, Coll Blues
TTITLE6=Take It Easy Baby
TTITLE7=Bye Bye Bird
TTITLE8=Pontiac Blues
TTITLE9=She Brought Life Back To The Dead
TTITLE10=Do It  If You Wanna
TTITLE11=I Cross My Heart
TTITLE12=Come On Back Home
TTITLE13=Out On The Water Coast
TTITLE14=Nine Below Zero
TTITLE15=Western Arizona
TTITLE16=West Memphis Blues
TTITLE17=Stop Now Baby
TTITLE18=Hours Too Long
TTITLE19=I Don't Care No More
TTITLE20=A Lost Care
TTITLE21=Mighty Long Time
EXTD=
EXTT0=
EXTT1=
EXTT2=
EXTT3=
EXTT4=
EXTT5=
EXTT6=
EXTT7=
EXTT8=
EXTT9=
EXTT10=
EXTT11=
EXTT12=
EXTT13=
EXTT14=
EXTT15=
EXTT16=
EXTT17=
EXTT18=
EXTT19=
EXTT20=
EXTT21=
PLAYORDER=
